<?xml version="1.0" encoding="utf-8"?>
<!-- Generator: Adobe Illustrator 25.2.0, SVG Export Plug-In . SVG Version: 6.00 Build 0)  -->
<svg version="1.1" id="Layer_1" xmlns="http://www.w3.org/2000/svg" xmlns:xlink="http://www.w3.org/1999/xlink" x="0px" y="0px"
	 viewBox="0 0 595.28 841.89" style="enable-background:new 0 0 595.28 841.89;" xml:space="preserve">
<style type="text/css">
	.st0{fill:#9B3838;stroke:#000000;stroke-width:7;stroke-miterlimit:10;}
</style>
<path class="st0" d="M207.77,209.83h-102.5c-10.83,0-19.62-8.78-19.62-19.62V87.72c0-10.83,8.78-19.62,19.62-19.62h102.5
	c10.83,0,19.62,8.78,19.62,19.62v102.5C227.39,201.05,218.6,209.83,207.77,209.83z"/>
<path class="st0" d="M376.77,209.83h-102.5c-10.83,0-19.62-8.78-19.62-19.62V87.72c0-10.83,8.78-19.62,19.62-19.62h102.5
	c10.83,0,19.62,8.78,19.62,19.62v102.5C396.39,201.05,387.6,209.83,376.77,209.83z"/>
<path class="st0" d="M376.77,375h-102.5c-10.83,0-19.62-8.78-19.62-19.62v-102.5c0-10.83,8.78-19.62,19.62-19.62h102.5
	c10.83,0,19.62,8.78,19.62,19.62v102.5C396.39,366.22,387.6,375,376.77,375z"/>
<path class="st0" d="M207.77,375h-102.5c-10.83,0-19.62-8.78-19.62-19.62v-102.5c0-10.83,8.78-19.62,19.62-19.62h102.5
	c10.83,0,19.62,8.78,19.62,19.62v102.5C227.39,366.22,218.6,375,207.77,375z"/>
</svg>
