<?xml version="1.0" encoding="utf-8"?>
<!-- Generator: Adobe Illustrator 25.2.0, SVG Export Plug-In . SVG Version: 6.00 Build 0)  -->
<svg version="1.1" id="Capa_1" xmlns="http://www.w3.org/2000/svg" xmlns:xlink="http://www.w3.org/1999/xlink" x="0px" y="0px"
	 viewBox="0 0 512 512" style="enable-background:new 0 0 512 512;" xml:space="preserve">
<style type="text/css">
	.st0{fill:#E7A500;stroke:#EDED03;stroke-miterlimit:10;}
</style>
<path class="st0" d="M469.6,80.7c-55.7-53-146.3-53-202,0l-11.6,11l-11.6-11c-55.7-53-146.3-53-202,0C15.1,106.7,0,141.2,0,177.9
	C0,214.5,15.1,249,42.4,275l201.2,191c3.5,3.3,7.9,4.9,12.4,4.9c4.4,0,8.9-1.6,12.4-4.9l201.2-191c27.3-26,42.4-60.5,42.4-97.2
	C512,141.2,496.9,106.7,469.6,80.7z"/>
</svg>
